<?xml version="1.0" encoding="UTF-8"?>
<svg version="1.1" xmlns="http://www.w3.org/2000/svg" width="192" height="192">
<path d="M0 0 C1.10613647 0.10501831 1.10613647 0.10501831 2.23461914 0.2121582 C15.05677574 1.68177574 15.05677574 1.68177574 18.5625 5.1875 C18.418125 6.404375 18.27375 7.62125 18.125 8.875 C16.76957853 20.73493789 16.56952649 30.01590217 23.5625 40.1875 C28.67626165 46.35885226 35.96579771 49.7548692 43.8828125 50.5 C49.62667792 50.60467181 54.13821401 50.14054812 59.5625 48.1875 C62.25 47.8125 62.25 47.8125 64.5625 48.1875 C67.98588189 51.56754794 68.47672176 55.62051084 69.1875 60.1875 C69.31229736 60.95441162 69.43709473 61.72132324 69.56567383 62.51147461 C74.44050762 93.36170013 74.32256717 132.51007381 56.87109375 159.8359375 C55.20400179 162.08110385 53.47003541 164.14431763 51.5625 166.1875 C51.06492188 166.72632813 50.56734375 167.26515625 50.0546875 167.8203125 C29.79492963 187.26560774 -5.37352832 187.77269059 -31.45898438 187.27636719 C-53.32460651 186.62398305 -80.21080055 182.54818856 -96.39453125 166.5 C-108.50338331 152.79361296 -113.1189496 134.97932363 -115.4375 117.1875 C-115.54964844 116.34058594 -115.66179687 115.49367188 -115.77734375 114.62109375 C-118.89303346 85.29946594 -117.91941969 46.81800505 -99.1953125 22.2578125 C-85.30631576 5.89966078 -61.21151282 1.65327783 -40.875 -0.5 C-27.30940068 -1.39443512 -13.52950486 -1.34981139 0 0 Z M-64.28125 53.83203125 C-65.36731833 56.04452856 -65.93582001 57.95118109 -66.50976562 60.3347168 C-66.81591797 61.60613525 -67.12207031 62.87755371 -67.4375 64.1875 C-66.69691849 64.19558685 -65.95633698 64.20367371 -65.1933136 64.21200562 C-58.20455317 64.2900362 -51.21598431 64.37735225 -44.22747517 64.47502708 C-40.63484348 64.52491384 -37.04224011 64.57124423 -33.44946289 64.609375 C-29.98042796 64.64632454 -26.51163441 64.6927101 -23.04280663 64.74556351 C-21.07926204 64.77303897 -19.11558943 64.79081155 -17.15193176 64.80844116 C-15.9510643 64.82831085 -14.75019684 64.84818054 -13.51293945 64.86865234 C-12.45814896 64.88197601 -11.40335846 64.89529968 -10.31660461 64.9090271 C-7.3165819 65.19919545 -5.13424714 65.86060349 -2.4375 67.1875 C-0.30054812 69.81012276 -0.43987141 71.32267064 -0.5 74.75 C-1.4375 78.1875 -1.4375 78.1875 -3.66149902 79.8782959 C-6.64940414 81.2874372 -8.51061647 81.56490303 -11.79101562 81.57226562 C-12.83559937 81.58237671 -13.88018311 81.59248779 -14.9564209 81.60290527 C-16.0742395 81.59988403 -17.19205811 81.59686279 -18.34375 81.59375 C-19.50120728 81.60458618 -20.65866455 81.61542236 -21.85119629 81.62658691 C-26.79772917 81.67243909 -31.7442106 81.6839296 -36.69091797 81.69873047 C-40.30455225 81.71441918 -43.91774742 81.74742018 -47.53125 81.78125 C-48.6490686 81.77822876 -49.76688721 81.77520752 -50.9185791 81.77209473 C-51.96316284 81.78220581 -53.00774658 81.79231689 -54.08398438 81.80273438 C-54.9993396 81.80478882 -55.91469482 81.80684326 -56.85778809 81.80895996 C-60.00663631 82.27101354 -61.87076246 83.33015332 -64.4375 85.1875 C-66.5603062 88.37170931 -67.4375 90.3500474 -67.4375 94.1875 C-66.10912553 98.1726234 -64.37639303 100.17863333 -61.4375 103.1875 C-58.46988427 104.17670524 -56.48842326 104.32525149 -53.39038086 104.34863281 C-52.36178452 104.35824036 -51.33318817 104.3678479 -50.27342224 104.37774658 C-49.16096634 104.38199646 -48.04851044 104.38624634 -46.90234375 104.390625 C-45.75391495 104.39632507 -44.60548615 104.40202515 -43.42225647 104.40789795 C-40.98699872 104.4173529 -38.55172814 104.42388389 -36.11645508 104.42773438 C-32.41399316 104.43739822 -28.71209624 104.46840046 -25.00976562 104.5 C-22.64062829 104.50653442 -20.27148699 104.51178316 -17.90234375 104.515625 C-16.80405746 104.5279718 -15.70577118 104.5403186 -14.57420349 104.55303955 C-4.11318477 104.5231588 4.88998143 102.69670229 12.59765625 95.2109375 C19.07373256 88.37050844 21.63617636 83.22781491 22 73.8125 C21.74480829 64.61496547 18.86332744 57.65352103 12.5625 50.9453125 C6.82025632 45.89841864 0.57849144 43.11784912 -7.04736328 42.99462891 C-7.95575958 42.97856598 -8.86415588 42.96250305 -9.80007935 42.94595337 C-13.95687847 42.90113393 -18.11352297 42.86042067 -22.27050781 42.83740234 C-24.45453577 42.82088122 -26.63851052 42.79364242 -28.82226562 42.75537109 C-31.98856354 42.70023417 -35.1535973 42.67866978 -38.3203125 42.6640625 C-39.28421906 42.64139313 -40.24812561 42.61872375 -41.24124146 42.59536743 C-50.93850736 42.62517147 -58.49108146 45.93787705 -64.28125 53.83203125 Z M-66.4375 122.1875 C-66.29723389 123.45819336 -66.15696777 124.72888672 -66.01245117 126.03808594 C-65.93355148 126.75285095 -65.85465179 127.46761597 -65.77336121 128.20404053 C-64.87198127 133.52722326 -60.48637588 137.35713993 -56.4375 140.5625 C-51.42393363 143.27818178 -47.05332229 144.43594462 -41.35961914 144.47802734 C-39.59232201 144.4971669 -39.59232201 144.4971669 -37.7893219 144.51669312 C-36.52982224 144.51891876 -35.27032257 144.52114441 -33.97265625 144.5234375 C-32.66598495 144.5300943 -31.35931366 144.5367511 -30.01304626 144.54360962 C-27.25353692 144.55554785 -24.49415246 144.55929391 -21.73461914 144.55810547 C-18.21295782 144.55790219 -14.69210269 144.58522731 -11.17063236 144.61964989 C-7.7921291 144.64733801 -4.41377137 144.64606962 -1.03515625 144.6484375 C0.22231918 144.66280853 1.47979462 144.67717957 2.77537537 144.69198608 C9.57882831 144.65654917 14.07597556 144.3614237 19.5625 140.1875 C21.53856631 137.69593813 21.58579509 136.007795 22 132.8125 C21.41656422 127.97831782 20.01210332 126.55687999 16.5625 123.1875 C12.94340049 121.9811335 9.64426757 122.05560944 5.87817383 122.07397461 C5.0974501 122.07382858 4.31672638 122.07368256 3.51234436 122.0735321 C0.93137841 122.07422886 -1.6495154 122.08201018 -4.23046875 122.08984375 C-6.01980042 122.09170877 -7.8091326 122.09313228 -9.59846497 122.09413147 C-14.30847584 122.09795001 -19.01845589 122.10777467 -23.72845459 122.11883545 C-28.53446028 122.12906379 -33.34047094 122.13363214 -38.14648438 122.13867188 C-47.57683646 122.14939751 -57.00716567 122.16646601 -66.4375 122.1875 Z " fill="#1F2944" transform="translate(118.4375,2.8125)"/>
<path d="M0 0 C4.69337611 3.38359673 7.84965909 6.97039526 10.125 12.3125 C11.22920309 19.42847546 10.4526269 25.17098451 6.25 31.140625 C2.6583907 35.2709757 -0.79836389 37.59391241 -6.28515625 38.34375 C-12.90793676 38.54071002 -17.92182572 38.10704335 -22.9296875 33.42578125 C-27.04456418 29.0451111 -29.26293134 24.91715561 -29.33984375 18.7421875 C-28.89629077 12.03202698 -26.82805885 7.32405583 -21.875 2.625 C-15.10313371 -1.8345217 -7.69983786 -2.46975931 0 0 Z " fill="#FFC05D" transform="translate(175.3125,5.0625)"/>
</svg>
