<svg xmlns="http://www.w3.org/2000/svg" xmlns:xlink="http://www.w3.org/1999/xlink" id="Layer_1" x="0px" y="0px" width="327px" height="400px" viewBox="36.5 0 327 400" style="enable-background:new 36.5 0 327 400;" xml:space="preserve">
<style type="text/css">
	.st0{fill:#FFFFFF;}
	.st1{fill:#1D1E22;}
</style>
<g>
	<g>
		<path class="st0" d="M350,172.3c-7-16.5-16.5-31.5-28.4-44.8l3.1-5.5c16.4-29.3,22.4-62.6,17.8-99l0-0.1l0-0.1    c-1.7-12.4-12-21.4-24.6-21.4c-8.7,0-16.6,4.5-21.1,12l0,0.1l0,0.1c-0.9,1.5-1.8,3.1-2.7,4.7c-9,15.6-21.4,37-43.2,50.9L238,77.4    c-12.4-3-25-4.5-38-4.5c-13.2,0-26.1,1.6-38.7,4.6l-10.8-7.8c-24.2-17.5-36.4-38.2-42.3-52.6C104.2,7.6,95,1.5,84.6,1.5    c-11,0-20.7,7-24.2,17.5c-11.8,35.6-7.7,71.1,12.1,105.5l3.3,5.8C65.2,143,56.5,157,50,172.4c-8.5,20.1-12.8,41.4-12.8,63.4    c0,22,4.3,43.3,12.8,63.4c8.2,19.4,19.9,36.8,34.9,51.7s32.3,26.7,51.7,34.9c20.1,8.5,41.4,12.8,63.4,12.8    c22,0,43.3-4.3,63.4-12.8c19.4-8.2,36.8-19.9,51.7-34.9c14.9-14.9,26.7-32.3,34.9-51.7c8.5-20.1,12.8-41.4,12.8-63.4    C362.8,213.8,358.5,192.4,350,172.3z"></path>
	</g>
	<path class="st1" d="M90.6,24.5c-2.3-5.5-10.2-5.3-12.1,0.5C66.7,60.8,75.2,91,89,115.1c14.8-12.7,31.8-22.9,50.3-29.9   C111.2,64.8,97.2,40.2,90.6,24.5z"></path>
</g>
<path class="st1" d="M200,92c-79.4,0-143.8,64.3-143.8,143.8S120.6,379.5,200,379.5s143.8-64.3,143.8-143.8S279.3,92,200,92z   M200,321.2c-47.2,0-85.4-38.2-85.4-85.4s38.2-85.4,85.4-85.4s85.4,38.2,85.4,85.4S247.2,321.2,200,321.2z"></path>
<g>
	<path class="st1" d="M226.8,236.1c-12.3,0-22.4-10-22.4-22.4c0-6.2,2.5-11.8,6.6-15.9c-3.6-1-7.3-1.8-11.2-1.8   c-22.2,0-40.2,18-40.2,40.2s18,40.2,40.2,40.2s40.2-18,40.2-40.2c0-1.5-0.3-2.8-0.5-4.1C236,234.5,231.6,236.1,226.8,236.1z"></path>
	<path class="st1" d="M199.9,196.1c3.9,0,7.6,0.7,11.2,1.8c-4.1,4.1-6.6,9.7-6.6,15.9c0,12.3,10,22.4,22.4,22.4   c4.8,0,9.2-1.6,12.8-4c0.2,1.4,0.5,2.7,0.5,4.1c0,22.2-18,40.2-40.2,40.2s-40.2-18-40.2-40.2S177.7,196.1,199.9,196.1"></path>
</g>
<path class="st1" d="M323.6,25.5c-0.7-5.3-7.8-6.8-10.6-2.2c-9.9,16.8-24,44-52.1,62c17.2,6.6,33.2,15.9,47.2,27.5  C319.9,91.7,328.4,63,323.6,25.5z"></path>
</svg>