<?xml version="1.0" encoding="UTF-8"?>
<svg version="1.1" xmlns="http://www.w3.org/2000/svg" width="256" height="256">
<path d="M0 0 C3.5449685 3.84038254 5.61397134 8.01617843 7.8125 12.6875 C11.00642865 19.24890799 14.45603369 25.25707141 19 31 C19.59167969 31.75539062 20.18335938 32.51078125 20.79296875 33.2890625 C34.08402473 49.23832967 55.37337489 60.42167186 76 63 C80.18626058 63.22520587 84.37712029 63.34256449 88.56835938 63.4296875 C93.96776253 63.62558421 98.28934337 64.09846672 103 67 C107.42573548 72.07929635 109.42009735 78.29733475 111.1875 84.6875 C111.44088135 85.59741699 111.6942627 86.50733398 111.95532227 87.44482422 C120.19182491 118.72901348 115.84011428 153.10772949 99.66259766 181.18310547 C82.4922294 209.69199603 55.97364697 229.17562641 24 238 C22.78828125 238.3403125 21.5765625 238.680625 20.328125 239.03125 C-11.94794189 246.51154018 -46.17424317 239.30053686 -74 222 C-101.65998537 203.35258317 -120.41874729 174.22450363 -127.25 141.6875 C-132.39545566 108.53889142 -125.45207422 74.54290359 -106 47 C-103.77423859 44.25550742 -101.47630127 41.67081331 -99.03125 39.12109375 C-97.31674826 37.33075827 -95.82344265 35.5202763 -94.3125 33.5625 C-76.99194882 13.27544557 -26.54641091 -14.52539465 0 0 Z M-50.3125 66.625 C-53.61801645 71.27720834 -53.62901499 75.39918163 -53 81 C-51.39711048 84.40546227 -51.39711048 84.40546227 -49 87 C-48.46375 87.7425 -47.9275 88.485 -47.375 89.25 C-43.612196 92.02259242 -39.63012189 92.77849726 -35 93 C-29.80902458 91.46823676 -24.78285392 89.10271865 -21.9921875 84.24609375 C-19.87695422 79.37724598 -19.34116045 75.08846488 -21 70 C-22.93666216 66.14210725 -25.18902677 63.58465512 -28.6875 61.0625 C-37.58359332 58.2090361 -44.03771556 59.50227172 -50.3125 66.625 Z M15.625 78.0625 C13.68094009 80.03426171 13.68094009 80.03426171 13.5 83.5 C13.63495469 86.9661133 13.63495469 86.9661133 15.6394043 88.6184082 C18.49465382 90.28950729 21.03328909 90.91688154 24.26953125 91.60546875 C26.09774414 91.99702148 26.09774414 91.99702148 27.96289062 92.39648438 C29.23326172 92.65751953 30.50363281 92.91855469 31.8125 93.1875 C33.07126953 93.46013672 34.33003906 93.73277344 35.62695312 94.01367188 C41.50087379 95.24914596 46.96499031 96.39523878 53 96 C55.63926358 93.95118716 55.63926358 93.95118716 57 91 C57.16977494 88.34872531 57.16977494 88.34872531 56 86 C52.8394495 83.06744941 49.86630581 82.27693798 45.6953125 81.39453125 C44.47199219 81.13349609 43.24867188 80.87246094 41.98828125 80.60351562 C40.71339844 80.34248047 39.43851563 80.08144531 38.125 79.8125 C36.85785156 79.53986328 35.59070313 79.26722656 34.28515625 78.98632812 C24.88457355 76.57204823 24.88457355 76.57204823 15.625 78.0625 Z M-81 126 C-84.33669199 131.27150992 -82.95023265 137.11849462 -82 143 C-77.97313442 158.95708144 -70.61500624 171.53693425 -59 183 C-57.9790625 184.01900391 -57.9790625 184.01900391 -56.9375 185.05859375 C-40.66102324 200.28388139 -20.26847205 203.86482416 1.18310547 203.17041016 C20.29941843 202.01395441 37.48961312 191.1079674 50.3359375 177.53125 C56.25683127 170.54414164 63.23177 161.44461146 63.6875 152 C63.32110351 148.00627824 62.03434537 145.70630803 59 143 C55.67970217 141.47644007 52.55288743 140.61753925 48.95504761 140.03817749 C47.96278671 139.87555923 46.97052582 139.71294098 45.94819641 139.5453949 C44.8707164 139.37492142 43.79323639 139.20444794 42.68310547 139.02880859 C41.53936966 138.8431987 40.39563385 138.65758881 39.21723938 138.46635437 C35.43483704 137.85432402 31.65110829 137.25100357 27.8671875 136.6484375 C25.8987727 136.33249526 23.93035834 136.0165501 21.96200955 135.70019686 C15.77045146 134.70520661 9.57792452 133.71641848 3.38476562 132.73144531 C-2.98140628 131.71884184 -9.34582211 130.69571093 -15.70946229 129.66732728 C-21.18980402 128.78208382 -26.67119565 127.90356454 -32.15345657 127.03028548 C-35.42009624 126.50986453 -38.68615993 125.98623429 -41.95148087 125.45759201 C-45.60197548 124.86762374 -49.25406129 124.2886829 -52.90673828 123.71240234 C-53.97207291 123.5378804 -55.03740753 123.36335846 -56.13502502 123.18354797 C-69.63832064 120.47662714 -69.63832064 120.47662714 -81 126 Z " fill="#9D3BAE" transform="translate(134,15)"/>
<path d="M0 0 C3.05466813 2.23367984 3.91905658 5.01979424 5.1875 8.5 C11.6571945 24.49076731 23.37161959 34.57101592 38.92578125 41.20166016 C46.96358815 44.29530759 55.05797108 45.14271965 63.625 44.875 C69.58723022 44.74010791 69.58723022 44.74010791 73.375 47.125 C75.28955397 50.51228779 75.73213349 52.17663624 75 56 C72.61177497 59.15586879 70.82602306 60.32368279 67 61 C45.88261045 62.2621888 25.90926924 56.75519562 9.8125 42.625 C0.14870314 33.55009076 -8.46175896 23.04726385 -12 10 C-11.88555292 6.50936412 -11.61511987 4.12168917 -9.9375 1.0625 C-6.8335715 -0.63965434 -3.44515796 -0.70848006 0 0 Z " fill="#8536BA" transform="translate(168,0)"/>
<path d="M0 0 C4.68123155 3.08032183 8.92473389 6.24818695 12 11 C12.0625 13.5 12.0625 13.5 11 16 C2.28547939 23.98831056 -11.74579311 25.10684374 -23 25 C-32.47553717 24.30326933 -43.64797614 22.50943236 -51 16 C-51.75 13.3125 -51.75 13.3125 -51 10 C-39.92710072 -5.26264495 -16.18356664 -9.02595668 0 0 Z " fill="#8D37B6" transform="translate(148,185)"/>
</svg>
