<?xml version="1.0" encoding="UTF-8"?>
<svg version="1.1" xmlns="http://www.w3.org/2000/svg" width="203" height="203">
<path d="M0 0 C66.99 0 133.98 0 203 0 C203 66.99 203 133.98 203 203 C136.01 203 69.02 203 0 203 C0 136.01 0 69.02 0 0 Z " fill="#F22020" transform="translate(0,0)"/>
<path d="M0 0 C0.33 0 0.66 0 1 0 C1 30.03 1 60.06 1 91 C31.69 91 62.38 91 94 91 C94 124.33 94 157.66 94 192 C62.98 192 31.96 192 0 192 C0 128.64 0 65.28 0 0 Z " fill="#F22020" transform="translate(104,6)"/>
<path d="M0 0 C31.02 0 62.04 0 94 0 C94 30.36 94 60.72 94 92 C63.31 92 32.62 92 1 92 C0.67 61.64 0.34 31.28 0 0 Z " fill="#010101" transform="translate(104,5)"/>
<path d="M0 0 C31.02 0 62.04 0 94 0 C93.67 30.36 93.34 60.72 93 92 C62.31 92 31.62 92 0 92 C0 61.64 0 31.28 0 0 Z " fill="#000000" transform="translate(5,5)"/>
<path d="M0 0 C66.99 0 133.98 0 203 0 C203 66.99 203 133.98 203 203 C136.01 203 69.02 203 0 203 C0 136.01 0 69.02 0 0 Z M5 5 C5 68.69 5 132.38 5 198 C36.02 198 67.04 198 99 198 C99 134.31 99 70.62 99 5 C67.98 5 36.96 5 5 5 Z M104 5 C104 68.69 104 132.38 104 198 C135.02 198 166.04 198 198 198 C198 134.31 198 70.62 198 5 C166.98 5 135.96 5 104 5 Z " fill="#FFFFFF" transform="translate(0,0)"/>
<path d="M0 0 C4.29 0 8.58 0 13 0 C13.27714844 1.48113281 13.55429688 2.96226563 13.83984375 4.48828125 C14.20561982 6.4297081 14.57151124 8.37111323 14.9375 10.3125 C15.11990234 11.28896484 15.30230469 12.26542969 15.49023438 13.27148438 C15.66748047 14.20927734 15.84472656 15.14707031 16.02734375 16.11328125 C16.27085571 17.40939331 16.27085571 17.40939331 16.51928711 18.73168945 C16.98706214 21.14897824 16.98706214 21.14897824 18 24 C19.65 16.08 21.3 8.16 23 0 C26.96 0 30.92 0 35 0 C35.34933594 1.48113281 35.69867188 2.96226563 36.05859375 4.48828125 C36.51815769 6.42970442 36.97779702 8.37110975 37.4375 10.3125 C37.66759766 11.28896484 37.89769531 12.26542969 38.13476562 13.27148438 C38.35712891 14.20927734 38.57949219 15.14707031 38.80859375 16.11328125 C39.01282959 16.97735596 39.21706543 17.84143066 39.42749023 18.73168945 C39.87598025 20.50862794 40.42046107 22.26138322 41 24 C42.65 16.08 44.3 8.16 46 0 C49.96 0 53.92 0 58 0 C55.96413316 10.58878228 53.80597463 21.13341562 51.3125 31.625 C51.09827393 32.53080811 50.88404785 33.43661621 50.66333008 34.36987305 C49.12929377 40.74141247 49.12929377 40.74141247 48 43 C43.71 43 39.42 43 35 43 C34.18360682 40.12605502 33.37177859 37.2509487 32.5625 34.375 C32.33240234 33.56675781 32.10230469 32.75851563 31.86523438 31.92578125 C30.6612128 27.6331826 29.62287748 23.42457793 29 19 C27.52418968 21.73589269 26.60076043 24.21859979 25.96484375 27.2578125 C25.79533203 28.04800781 25.62582031 28.83820312 25.45117188 29.65234375 C25.28166016 30.46832031 25.11214844 31.28429687 24.9375 32.125 C24.59480856 33.75310283 24.24986233 35.38073318 23.90234375 37.0078125 C23.75273193 37.72598145 23.60312012 38.44415039 23.44897461 39.18408203 C23 41 23 41 22 43 C18.04 43 14.08 43 10 43 C7.42997697 35.74391701 5.58032259 28.44006243 3.875 20.9375 C3.61074219 19.80505859 3.34648438 18.67261719 3.07421875 17.50585938 C1.73646828 11.67611938 0.59745516 5.95269353 0 0 Z " fill="#F8F8F8" transform="translate(123,29)"/>
<path d="M0 0 C4.29 0 8.58 0 13 0 C13 5.28 13 10.56 13 16 C17.29 16 21.58 16 26 16 C26 10.72 26 5.44 26 0 C30.29 0 34.58 0 39 0 C39 14.19 39 28.38 39 43 C35.04 43 31.08 43 27 43 C27 37.39 27 31.78 27 26 C22.05 26 17.1 26 12 26 C12 31.61 12 37.22 12 43 C8.04 43 4.08 43 0 43 C0 28.81 0 14.62 0 0 Z " fill="#FEF8F8" transform="translate(130,128)"/>
<path d="M0 0 C4.29 0 8.58 0 13 0 C13 5.28 13 10.56 13 16 C17.29 16 21.58 16 26 16 C26 10.72 26 5.44 26 0 C30.29 0 34.58 0 39 0 C39 14.19 39 28.38 39 43 C35.04 43 31.08 43 27 43 C27 37.39 27 31.78 27 26 C22.05 26 17.1 26 12 26 C12 31.61 12 37.22 12 43 C8.04 43 4.08 43 0 43 C0 28.81 0 14.62 0 0 Z " fill="#FEF8F8" transform="translate(33,128)"/>
<path d="M0 0 C4.29 0 8.58 0 13 0 C13 10.89 13 21.78 13 33 C18.28 33 23.56 33 29 33 C29 36.3 29 39.6 29 43 C19.43 43 9.86 43 0 43 C0 28.81 0 14.62 0 0 Z " fill="#F2F2F2" transform="translate(36,29)"/>
</svg>
